<svg xmlns="http://www.w3.org/2000/svg" viewBox="0 0 191.25 57.25"><defs><style>.cls-1{fill:#fff;}.cls-2{fill:aqua;}</style></defs><g id="Layer_2" data-name="Layer 2"><g id="Layer_1-2" data-name="Layer 1"><path class="cls-1" d="M25,1A24,24,0,1,1,1,25,24,24,0,0,1,25,1m0-1A25,25,0,1,0,50,25,25,25,0,0,0,25,0Z"/><circle class="cls-2" cx="25" cy="25" r="20"/><path class="cls-2" d="M25.25,39.25v18s20.42-23.58,18-26C42.25,30.25,25.25,39.25,25.25,39.25Z"/><path class="cls-1" d="M7.25,24.25a16.45,16.45,0,0,0,.6,3.42A19.46,19.46,0,0,0,9,30.93a18.87,18.87,0,0,0,9.56,9.53,18.51,18.51,0,0,0,3.25,1.17,17.29,17.29,0,0,0,3.42.62,17.71,17.71,0,0,1-6.83-1.43,18.69,18.69,0,0,1-5.84-3.9,18.65,18.65,0,0,1-3.89-5.85A17.86,17.86,0,0,1,7.25,24.25Z"/><path class="cls-1" d="M35.44,25.76A2.56,2.56,0,0,1,36,27.37a2.42,2.42,0,0,1-1.11,2.13,5.73,5.73,0,0,1-3.21.75H26V19.75h5.37a5.32,5.32,0,0,1,3.06.74,2.35,2.35,0,0,1,1,2,2.46,2.46,0,0,1-.37,1.34,2.64,2.64,0,0,1-1,.94A2.91,2.91,0,0,1,35.44,25.76ZM28.9,21.89v2h2q1.5,0,1.5-1c0-.67-.5-1-1.5-1ZM33,27c0-.71-.52-1.07-1.56-1.07H28.9v2.14h2.49C32.43,28.11,33,27.75,33,27Z"/><path class="cls-1" d="M15.51,25.76A2.56,2.56,0,0,0,15,27.37a2.42,2.42,0,0,0,1.11,2.13,5.73,5.73,0,0,0,3.21.75H25V19.75H19.62a5.32,5.32,0,0,0-3.06.74,2.35,2.35,0,0,0-1,2,2.46,2.46,0,0,0,.37,1.34,2.64,2.64,0,0,0,1,.94A2.91,2.91,0,0,0,15.51,25.76Zm6.54-3.87v2H20q-1.5,0-1.5-1c0-.67.5-1,1.5-1ZM18,27c0-.71.52-1.07,1.56-1.07h2.49v2.14H19.56C18.52,28.11,18,27.75,18,27Z"/><path class="cls-2" d="M75.07,30.78c0,7.69-2.9,11.33-8.62,11.33H61.12c-3.24,0-4.65-1.62-4.65-4.11V9.12c0-2.49,1.41-4.1,4.65-4.1h4.93c5.67,0,8.22,3.79,8.22,9.09,0,4.1-1.13,6.18-2.55,7.63C73.59,23.09,75.07,25.85,75.07,30.78Zm-12-12h2.05c1.7,0,2.6-1.09,2.6-4.36s-.9-4-2.6-4H63Zm5.11,11.74c0-4.52-1-5.87-2.55-5.87H63V36.39H65.6C67.13,36.39,68.15,35,68.15,30.52Z"/><path class="cls-2" d="M78.58,33.79V13.59a3.36,3.36,0,0,1,6.69,0v20c0,2.49.63,3.37,1.93,3.37,1.48,0,2-.88,2-3.37v-20a3.36,3.36,0,0,1,6.69,0v20.2c0,5.72-3.46,8.73-8.73,8.73S78.58,39.51,78.58,33.79Z"/><path class="cls-2" d="M117.37,18.73V33.9c0,5.71-3.46,8.73-8.74,8.73s-8.62-3-8.62-8.73V5.74a3.36,3.36,0,0,1,6.7,0v4.52a6.05,6.05,0,0,1,1.92-.26C113.91,10,117.37,13,117.37,18.73Zm-6.69.1c0-2.49-.57-3.37-2.05-3.37-1.19,0-1.92,1.24-1.92,3.68V33.85c0,2.49.62,3.27,1.92,3.27,1.48,0,2.05-.78,2.05-3.27Z"/><path class="cls-2" d="M138.8,18.73V33.9c0,5.71-3.46,8.73-8.73,8.73s-8.62-3-8.62-8.73V5.74a3.35,3.35,0,0,1,6.69,0v4.52a6.07,6.07,0,0,1,1.93-.26C135.34,10,138.8,13,138.8,18.73Zm-6.69.1c0-2.49-.57-3.37-2-3.37-1.19,0-1.93,1.24-1.93,3.68V33.85c0,2.49.62,3.27,1.93,3.27,1.47,0,2-.78,2-3.27Z"/><path class="cls-2" d="M143.11,39V5.74a3.35,3.35,0,0,1,6.69,0V39a3.36,3.36,0,0,1-6.69,0Z"/><path class="cls-2" d="M154.11,33.64V18.78c0-5.66,3.46-8.67,8.62-8.67s8.62,3,8.62,8.67v7.27c0,2.6-1.53,3.85-4.37,3.85H160.8v3.74c0,2.28.79,3.27,2.21,3.27,1.65,0,2-1,2-2.34v-.31a3.13,3.13,0,0,1,6.23,0V35c0,4.83-3.23,7.38-8.27,7.38C157.57,42.42,154.11,39.4,154.11,33.64ZM164.77,25V18.57c0-2.49-.57-3.32-2-3.32-1.31,0-1.93.83-1.93,3.32V25Z"/><path class="cls-2" d="M173.73,34.21c0-3.17,1.08-5.25,3.74-5.25a2.7,2.7,0,0,1,3,2.44c.05.89-.12,2-.12,3.28,0,1.55.91,2.44,2,2.44,1.93,0,2.16-1.35,2.16-4.21,0-3.22-.8-4.88-3.29-6.18l-1-.52c-3.58-1.87-6.07-3.84-6.07-8.52s2.78-7.64,8.67-7.64c4.54,0,7.72,2.13,7.83,6.34.06,1.87-.91,3.17-2.84,3.22a2.77,2.77,0,0,1-3-2.54,2,2,0,1,0-4,.46c0,1.46.79,2.29,2.32,3l1.88.93c4.59,2.18,6.12,6.24,6.12,11,0,6.85-3,9.92-9,9.92C177.3,42.42,173.73,40,173.73,34.21Z"/></g></g></svg>